<svg width="16" height="16" viewBox="0 0 16 16" fill="none" xmlns="http://www.w3.org/2000/svg">
<path d="M10.9367 7.54252C12.6245 7.82405 13.8903 8.32454 14.7342 9.04399C15.5781 9.75562 16 10.6862 16 11.8358C16 13.1261 15.4599 14.1427 14.3797 14.8856C13.2996 15.6285 11.5063 16 9 16H0V14.6979C0.902954 14.6979 1.50211 14.5689 1.79747 14.3109C2.09283 14.045 2.24051 13.5249 2.24051 12.7507V3.42522C2.24051 2.67449 2.10127 2.16227 1.82278 1.88856C1.5443 1.61486 0.936709 1.47801 0 1.47801V0.175953L6.59494 0H7.53165C10.5021 0 12.5274 0.344086 13.6076 1.03226C14.6878 1.71261 15.2278 2.64321 15.2278 3.82405C15.2278 4.71554 14.8692 5.47019 14.1519 6.08798C13.443 6.70577 12.3713 7.19062 10.9367 7.54252ZM6.73418 6.86217H7.60759C8.53587 6.86217 9.22785 6.66276 9.68354 6.26393C10.1392 5.85728 10.3671 5.15738 10.3671 4.16422C10.3671 3.42131 10.2236 2.8348 9.93671 2.40469C9.64979 1.97458 9.27004 1.69697 8.79747 1.57185C8.33333 1.44673 7.64557 1.38416 6.73418 1.38416V6.86217ZM6.73418 8.29325V12.8094C6.73418 13.2473 6.78059 13.5797 6.87342 13.8065C6.97468 14.0332 7.16456 14.2248 7.44304 14.3812C7.72996 14.5298 8.1308 14.6041 8.64557 14.6041C9.44726 14.6041 10.0464 14.3421 10.443 13.8182C10.8481 13.2942 11.0506 12.5083 11.0506 11.4604C11.0506 10.6237 10.9198 9.97067 10.6582 9.50147C10.3966 9.02444 10.038 8.70381 9.58228 8.53959C9.12658 8.37537 8.45148 8.29325 7.55696 8.29325H6.73418Z" fill="black"/>
</svg>
