<svg width="262" height="35" viewBox="0 0 262 35" fill="none" xmlns="http://www.w3.org/2000/svg">
<path d="M149.079 26.2954C147.816 26.2954 146.649 26.0454 145.578 25.5452C144.53 25.0212 143.624 24.3185 142.862 23.4373C142.1 22.5322 141.505 21.508 141.076 20.3647C140.671 19.2214 140.469 18.0305 140.469 16.792C140.469 15.482 140.671 14.2434 141.076 13.0763C141.505 11.9092 142.1 10.8851 142.862 10.0038C143.648 9.09868 144.565 8.39605 145.613 7.89586C146.661 7.37186 147.828 7.10986 149.115 7.10986C150.663 7.10986 152.008 7.49095 153.152 8.25314C154.319 9.01532 155.295 9.97996 156.081 11.1471V7.43141H158.868V25.8667C158.868 27.6293 158.439 29.1179 157.582 30.3326C156.748 31.5474 155.605 32.4644 154.152 33.0836C152.723 33.7267 151.127 34.0483 149.365 34.0483C147.269 34.0483 145.554 33.6791 144.22 32.9407C142.886 32.2024 141.779 31.202 140.897 29.9396L142.719 28.3319C143.458 29.4275 144.41 30.2493 145.578 30.7971C146.768 31.3449 148.031 31.6188 149.365 31.6188C150.508 31.6188 151.556 31.4045 152.509 30.9757C153.485 30.5708 154.259 29.9396 154.831 29.0822C155.426 28.2247 155.724 27.1529 155.724 25.8667V22.5798C155.033 23.7231 154.081 24.6282 152.866 25.2951C151.675 25.962 150.413 26.2954 149.079 26.2954ZM150.043 23.7231C150.71 23.7231 151.353 23.604 151.973 23.3658C152.592 23.1276 153.164 22.818 153.688 22.4369C154.212 22.032 154.652 21.5794 155.01 21.0793C155.367 20.5791 155.605 20.067 155.724 19.543V14.1839C155.391 13.3264 154.914 12.5761 154.295 11.9331C153.676 11.2661 152.973 10.7541 152.187 10.3968C151.401 10.0157 150.591 9.82514 149.758 9.82514C148.805 9.82514 147.947 10.0276 147.185 10.4325C146.447 10.8374 145.816 11.3852 145.292 12.076C144.768 12.7429 144.363 13.4931 144.077 14.3268C143.791 15.1604 143.648 16.006 143.648 16.8634C143.648 17.7923 143.815 18.6736 144.148 19.5073C144.482 20.3171 144.934 21.0435 145.506 21.6866C146.078 22.3297 146.757 22.8299 147.543 23.1872C148.329 23.5444 149.162 23.7231 150.043 23.7231Z" fill="black"/>
<path d="M128.406 26.4384C127.001 26.4384 125.727 26.1883 124.583 25.6881C123.44 25.1641 122.452 24.4614 121.618 23.5802C120.784 22.6751 120.141 21.639 119.689 20.4719C119.236 19.3048 119.01 18.0782 119.01 16.792C119.01 15.482 119.236 14.2434 119.689 13.0763C120.141 11.9092 120.784 10.8851 121.618 10.0038C122.452 9.09868 123.44 8.39605 124.583 7.89586C125.75 7.37186 127.037 7.10986 128.442 7.10986C129.823 7.10986 131.086 7.37186 132.229 7.89586C133.372 8.39605 134.361 9.09868 135.194 10.0038C136.052 10.8851 136.707 11.9092 137.159 13.0763C137.612 14.2434 137.838 15.482 137.838 16.792C137.838 18.0782 137.612 19.3048 137.159 20.4719C136.707 21.639 136.064 22.6751 135.23 23.5802C134.396 24.4614 133.396 25.1641 132.229 25.6881C131.086 26.1883 129.811 26.4384 128.406 26.4384ZM122.225 16.8277C122.225 18.1139 122.499 19.281 123.047 20.329C123.619 21.377 124.369 22.2106 125.298 22.8299C126.227 23.4254 127.263 23.7231 128.406 23.7231C129.549 23.7231 130.585 23.4134 131.514 22.7942C132.467 22.1749 133.217 21.3413 133.765 20.2933C134.337 19.2214 134.623 18.0424 134.623 16.7562C134.623 15.4701 134.337 14.303 133.765 13.255C133.217 12.207 132.467 11.3733 131.514 10.7541C130.585 10.1348 129.549 9.82514 128.406 9.82514C127.263 9.82514 126.227 10.1467 125.298 10.7898C124.369 11.4091 123.619 12.2427 123.047 13.2907C122.499 14.3387 122.225 15.5177 122.225 16.8277Z" fill="black"/>
<path d="M110.109 0H113.253V21.2578C113.253 22.282 113.396 22.9131 113.682 23.1513C113.967 23.3895 114.313 23.5086 114.718 23.5086C115.218 23.5086 115.694 23.461 116.147 23.3657C116.599 23.2466 116.98 23.1275 117.29 23.0084L117.79 25.5808C117.266 25.7951 116.647 25.9738 115.932 26.1167C115.218 26.2596 114.587 26.3311 114.039 26.3311C112.824 26.3311 111.86 25.9857 111.145 25.295C110.454 24.6042 110.109 23.6396 110.109 22.401V0Z" fill="black"/>
<path d="M106.04 19.5429C106.04 20.8529 105.706 21.9962 105.039 22.9727C104.372 23.9493 103.467 24.7115 102.324 25.2593C101.205 25.8071 99.9661 26.081 98.6085 26.081H86.5684V0.7146H99.1801C100.371 0.7146 101.395 1.03615 102.253 1.67924C103.134 2.29851 103.801 3.10833 104.253 4.1087C104.73 5.08525 104.968 6.10943 104.968 7.18125C104.968 8.4198 104.646 9.58689 104.003 10.6825C103.384 11.7544 102.491 12.5523 101.324 13.0763C102.777 13.505 103.92 14.3029 104.754 15.47C105.611 16.6133 106.04 17.9709 106.04 19.5429ZM102.789 18.9713C102.789 18.1853 102.61 17.4588 102.253 16.7919C101.919 16.125 101.455 15.5891 100.859 15.1842C100.288 14.7793 99.6208 14.5768 98.8586 14.5768H89.7838V23.2943H98.6085C99.3945 23.2943 100.097 23.0918 100.716 22.6869C101.359 22.282 101.86 21.758 102.217 21.1149C102.598 20.448 102.789 19.7335 102.789 18.9713ZM89.7838 3.50133V11.9687H97.8582C98.6204 11.9687 99.2873 11.7782 99.8589 11.3971C100.454 11.016 100.919 10.5039 101.252 9.8608C101.61 9.21771 101.788 8.51507 101.788 7.75289C101.788 6.94307 101.621 6.22852 101.288 5.60925C100.978 4.96615 100.538 4.45406 99.9661 4.07297C99.4183 3.69188 98.7871 3.50133 98.0726 3.50133H89.7838Z" fill="black"/>
<path d="M252.92 26.6638H247.04V7.6106H253.18C255.029 7.6106 256.61 7.99203 257.925 8.7549C259.24 9.51157 260.248 10.6001 260.949 12.0204C261.65 13.4345 262 15.1277 262 17.1C262 19.0847 261.646 20.7934 260.939 22.2261C260.232 23.6526 259.203 24.7504 257.851 25.5194C256.499 26.2823 254.855 26.6638 252.92 26.6638ZM249.348 24.617H252.771C254.346 24.617 255.652 24.3131 256.688 23.7053C257.724 23.0975 258.496 22.2323 259.004 21.1097C259.513 19.9871 259.767 18.6505 259.767 17.1C259.767 15.5618 259.516 14.2376 259.014 13.1275C258.511 12.0111 257.761 11.1552 256.762 10.5597C255.764 9.95813 254.52 9.65732 253.032 9.65732H249.348V24.617Z" fill="#018201"/>
<path d="M232.304 26.6638V7.6106H234.611V24.617H243.468V26.6638H232.304Z" fill="#018201"/>
<path d="M215.546 26.6638V7.6106H221.984C223.473 7.6106 224.695 7.86489 225.65 8.37347C226.605 8.87584 227.312 9.56739 227.771 10.4481C228.23 11.3288 228.459 12.3305 228.459 13.4531C228.459 14.5757 228.23 15.5711 227.771 16.4394C227.312 17.3077 226.608 17.99 225.659 18.4862C224.71 18.9761 223.498 19.2211 222.021 19.2211H216.812V17.1372H221.947C222.964 17.1372 223.783 16.9883 224.403 16.6906C225.03 16.3929 225.482 15.9712 225.761 15.4254C226.047 14.8734 226.189 14.2159 226.189 13.4531C226.189 12.6902 226.047 12.0235 225.761 11.4529C225.476 10.8823 225.02 10.4419 224.394 10.1318C223.767 9.81548 222.939 9.65732 221.91 9.65732H217.854V26.6638H215.546ZM224.515 18.1047L229.204 26.6638H226.524L221.91 18.1047H224.515Z" fill="#018201"/>
<path d="M211.667 17.1373C211.667 19.1468 211.304 20.8834 210.579 22.3471C209.853 23.8109 208.857 24.9397 207.592 25.7335C206.327 26.5274 204.882 26.9244 203.257 26.9244C201.632 26.9244 200.187 26.5274 198.922 25.7335C197.656 24.9397 196.661 23.8109 195.935 22.3471C195.21 20.8834 194.847 19.1468 194.847 17.1373C194.847 15.1278 195.21 13.3912 195.935 11.9274C196.661 10.4637 197.656 9.33492 198.922 8.54104C200.187 7.74716 201.632 7.35022 203.257 7.35022C204.882 7.35022 206.327 7.74716 207.592 8.54104C208.857 9.33492 209.853 10.4637 210.579 11.9274C211.304 13.3912 211.667 15.1278 211.667 17.1373ZM209.434 17.1373C209.434 15.4875 209.158 14.0951 208.606 12.9601C208.06 11.8251 207.319 10.9661 206.383 10.3831C205.452 9.80009 204.41 9.50859 203.257 9.50859C202.103 9.50859 201.058 9.80009 200.122 10.3831C199.191 10.9661 198.45 11.8251 197.898 12.9601C197.352 14.0951 197.079 15.4875 197.079 17.1373C197.079 18.7871 197.352 20.1795 197.898 21.3145C198.45 22.4495 199.191 23.3085 200.122 23.8915C201.058 24.4745 202.103 24.766 203.257 24.766C204.41 24.766 205.452 24.4745 206.383 23.8915C207.319 23.3085 208.06 22.4495 208.606 21.3145C209.158 20.1795 209.434 18.7871 209.434 17.1373Z" fill="#018201"/>
<path d="M175.08 26.6638L169.87 7.6106H172.214L176.196 23.1285H176.382L180.438 7.6106H183.043L187.1 23.1285H187.286L191.267 7.6106H193.612L188.402 26.6638H186.02L181.815 11.4808H181.666L177.461 26.6638H175.08Z" fill="#018201"/>
<path d="M0.928467 18.1211L42.5032 18.1211V14.1395L0.928467 14.1395V18.1211Z" fill="#018201"/>
<path d="M43.2349 4.47412L52.9146 4.47412V1.87131L43.2349 1.87131V4.47412Z" fill="#018201"/>
<path d="M0.000160217 3.98157L17.7134 3.98157V-3.76701e-05L0.000160217 -3.76701e-05V3.98157Z" fill="#004902"/>
<path d="M10.0033 11.0583L27.7166 11.0583V7.07674L10.0033 7.07674V11.0583Z" fill="black"/>
<path d="M16.8127 25.2122L58.3875 25.2122V21.2306L16.8127 21.2306V25.2122Z" fill="black"/>
</svg>
