<svg width="30" height="26" viewBox="0 0 30 26" fill="none" xmlns="http://www.w3.org/2000/svg">
<path d="M5.78516 6.46284H24.108C24.3289 6.46284 24.5407 6.41588 24.6969 6.33229C24.8531 6.24871 24.9408 6.13534 24.9408 6.01713C24.9408 5.89891 24.8531 5.78555 24.6969 5.70196C24.5407 5.61837 24.3289 5.57141 24.108 5.57141H5.78516C5.56427 5.57141 5.35243 5.61837 5.19624 5.70196C5.04005 5.78555 4.9523 5.89891 4.9523 6.01713C4.9523 6.13534 5.04005 6.24871 5.19624 6.33229C5.35243 6.41588 5.56427 6.46284 5.78516 6.46284Z" fill="black"/>
<path d="M8.28387 10.2562C8.06299 10.2562 7.85115 10.3032 7.69496 10.3868C7.53877 10.4704 7.45102 10.5837 7.45102 10.7019C7.45102 10.8202 7.53877 10.9335 7.69496 11.0171C7.85115 11.1007 8.06299 11.1477 8.28387 11.1477H21.6096C21.8304 11.1477 22.0423 11.1007 22.1985 11.0171C22.3547 10.9335 22.4424 10.8202 22.4424 10.7019C22.4424 10.5837 22.3547 10.4704 22.1985 10.3868C22.0423 10.3032 21.8304 10.2562 21.6096 10.2562H8.28387Z" fill="black"/>
<path d="M24.108 14.941H5.78516C5.56427 14.941 5.35243 14.988 5.19624 15.0716C5.04005 15.1552 4.9523 15.2685 4.9523 15.3868C4.9523 15.505 5.04005 15.6183 5.19624 15.7019C5.35243 15.7855 5.56427 15.8325 5.78516 15.8325H24.108C24.3289 15.8325 24.5407 15.7855 24.6969 15.7019C24.8531 15.6183 24.9408 15.505 24.9408 15.3868C24.9408 15.2685 24.8531 15.1552 24.6969 15.0716C24.5407 14.988 24.3289 14.941 24.108 14.941Z" fill="black"/>
<path d="M21.6096 19.6258H8.28387C8.06299 19.6258 7.85115 19.6728 7.69496 19.7563C7.53877 19.8399 7.45102 19.9533 7.45102 20.0715C7.45102 20.1897 7.53877 20.3031 7.69496 20.3867C7.85115 20.4703 8.06299 20.5172 8.28387 20.5172H21.6096C21.8304 20.5172 22.0423 20.4703 22.1985 20.3867C22.3547 20.3031 22.4424 20.1897 22.4424 20.0715C22.4424 19.9533 22.3547 19.8399 22.1985 19.7563C22.0423 19.6728 21.8304 19.6258 21.6096 19.6258Z" fill="black"/>
</svg>
