<svg width="41" height="29" viewBox="0 0 41 29" fill="none" xmlns="http://www.w3.org/2000/svg">
<path d="M38.3333 16.5C39.4379 16.5 40.3333 15.6046 40.3333 14.5C40.3333 13.3954 39.4379 12.5 38.3333 12.5V16.5ZM0 16.5H38.3333V12.5H0V16.5Z" fill="#231F20"/>
<path d="M38.3333 4C39.4379 4 40.3333 3.10457 40.3333 2C40.3333 0.895431 39.4379 0 38.3333 0V4ZM0 4H38.3333V0H0V4Z" fill="black"/>
<path d="M38.3333 29C39.4379 29 40.3333 28.1046 40.3333 27C40.3333 25.8954 39.4379 25 38.3333 25V29ZM0 29H22.9167V25H0V29ZM22.9167 29H38.3333V25H22.9167V29Z" fill="black"/>
</svg>
