<svg width="9" height="16" viewBox="0 0 9 16" fill="none" xmlns="http://www.w3.org/2000/svg">
<path d="M5.68319 15.4572L5.54741 16H0L0.135776 15.4572H0.436422C0.837284 15.4572 1.17672 15.3707 1.45474 15.1976C1.73276 15.0167 1.92026 14.8122 2.01724 14.5841C2.12069 14.3481 2.2694 13.8368 2.46336 13.0501L4.99461 2.86726C5.19504 2.08063 5.29526 1.58899 5.29526 1.39233C5.29526 0.825959 4.87823 0.542773 4.04418 0.542773H3.69504L3.83082 0H9L8.86422 0.542773H8.59267C8.28233 0.542773 8.00108 0.609636 7.74892 0.743363C7.49677 0.877089 7.31573 1.06195 7.20582 1.29794C7.10237 1.53392 6.9278 2.14356 6.68211 3.12684L4.22845 12.9322C4.04095 13.6794 3.9472 14.1514 3.9472 14.3481C3.9472 14.7335 4.08297 15.0167 4.35453 15.1976C4.63254 15.3707 4.94935 15.4572 5.30496 15.4572H5.68319Z" fill="black"/>
</svg>
