<svg width="21" height="21" viewBox="0 0 21 21" fill="none" xmlns="http://www.w3.org/2000/svg">
<path d="M16.8306 1.53125H4.16937C2.71512 1.53125 1.53125 2.71425 1.53125 4.16937V16.8315C1.53125 18.2857 2.71425 19.4696 4.16937 19.4696H16.8315C18.2857 19.4696 19.4696 18.2866 19.4696 16.8315V4.16937C19.4687 2.71425 18.2857 1.53125 16.8306 1.53125ZM18.4135 16.8306C18.4135 17.703 17.7039 18.4135 16.8306 18.4135H4.16937C3.297 18.4135 2.5865 17.7039 2.5865 16.8306V14.9222L6.84425 10.1911L12.5956 15.4192L15.7762 12.7689L18.4144 14.9669L18.4135 16.8306ZM18.4135 13.594L15.7754 11.396L12.6245 14.021L6.76987 8.6975L2.5865 13.3455V4.16937C2.5865 3.297 3.29612 2.5865 4.16937 2.5865H16.8315C17.7039 2.5865 18.4144 3.29612 18.4144 4.16937L18.4135 13.594Z" fill="black"/>
<path d="M14.1934 9.44477C15.6476 9.44477 16.8315 8.26177 16.8315 6.80664C16.8315 5.35152 15.6485 4.16852 14.1934 4.16852C12.7391 4.16852 11.5553 5.35152 11.5553 6.80664C11.5553 8.26177 12.7383 9.44477 14.1934 9.44477ZM14.1934 5.22464C15.0658 5.22464 15.7763 5.93427 15.7763 6.80752C15.7763 7.68077 15.0666 8.39039 14.1934 8.39039C13.3201 8.39039 12.6105 7.68077 12.6105 6.80752C12.6105 5.93427 13.3201 5.22464 14.1934 5.22464Z" fill="black"/>
</svg>
