<svg width="30" height="26" viewBox="0 0 30 26" fill="none" xmlns="http://www.w3.org/2000/svg">
<path d="M23.2243 6.46284H4.90146C4.68057 6.46284 4.46873 6.41588 4.31254 6.33229C4.15635 6.24871 4.0686 6.13534 4.0686 6.01713C4.0686 5.89891 4.15635 5.78555 4.31254 5.70196C4.46873 5.61837 4.68057 5.57141 4.90146 5.57141H23.2243C23.4452 5.57141 23.657 5.61837 23.8132 5.70196C23.9694 5.78555 24.0571 5.89891 24.0571 6.01713C24.0571 6.13534 23.9694 6.24871 23.8132 6.33229C23.657 6.41588 23.4452 6.46284 23.2243 6.46284Z" fill="black"/>
<path d="M22.9461 10.2562C23.2408 10.2562 23.5234 10.3032 23.7317 10.3868C23.9401 10.4704 24.0571 10.5837 24.0571 10.7019C24.0571 10.8202 23.9401 10.9335 23.7317 11.0171C23.5234 11.1007 23.2408 11.1477 22.9461 11.1477H5.1704C4.87575 11.1477 4.59316 11.1007 4.38481 11.0171C4.17646 10.9335 4.05942 10.8202 4.05942 10.7019C4.05942 10.5837 4.17646 10.4704 4.38481 10.3868C4.59316 10.3032 4.87575 10.2562 5.1704 10.2562H22.9461Z" fill="black"/>
<path d="M4.89265 14.941H23.2239C23.4449 14.941 23.6568 14.988 23.8131 15.0716C23.9693 15.1552 24.0571 15.2685 24.0571 15.3868C24.0571 15.505 23.9693 15.6183 23.8131 15.7019C23.6568 15.7855 23.4449 15.8325 23.2239 15.8325H4.89265C4.67166 15.8325 4.45973 15.7855 4.30346 15.7019C4.1472 15.6183 4.05942 15.505 4.05942 15.3868C4.05942 15.2685 4.1472 15.1552 4.30346 15.0716C4.45973 14.988 4.67166 14.941 4.89265 14.941Z" fill="black"/>
<path d="M5.1704 19.6258H22.9461C23.2408 19.6258 23.5234 19.6728 23.7317 19.7563C23.9401 19.8399 24.0571 19.9533 24.0571 20.0715C24.0571 20.1897 23.9401 20.3031 23.7317 20.3867C23.5234 20.4703 23.2408 20.5172 22.9461 20.5172H5.1704C4.87575 20.5172 4.59316 20.4703 4.38481 20.3867C4.17646 20.3031 4.05942 20.1897 4.05942 20.0715C4.05942 19.9533 4.17646 19.8399 4.38481 19.7563C4.59316 19.6728 4.87575 19.6258 5.1704 19.6258Z" fill="black"/>
</svg>
