<svg width="30" height="26" viewBox="0 0 30 26" fill="none" xmlns="http://www.w3.org/2000/svg">
<path d="M6.77573 6.46284H25.0985C25.3194 6.46284 25.5313 6.41588 25.6875 6.33229C25.8437 6.24871 25.9314 6.13534 25.9314 6.01713C25.9314 5.89891 25.8437 5.78555 25.6875 5.70196C25.5313 5.61837 25.3194 5.57141 25.0985 5.57141H6.77573C6.55484 5.57141 6.343 5.61837 6.18681 5.70196C6.03062 5.78555 5.94287 5.89891 5.94287 6.01713C5.94287 6.13534 6.03062 6.24871 6.18681 6.33229C6.343 6.41588 6.55484 6.46284 6.77573 6.46284Z" fill="black"/>
<path d="M6.77573 10.2562C6.55484 10.2562 6.343 10.3032 6.18681 10.3868C6.03062 10.4704 5.94287 10.5837 5.94287 10.7019C5.94287 10.8202 6.03062 10.9335 6.18681 11.0171C6.343 11.1007 6.55484 11.1477 6.77573 11.1477H20.1014C20.3223 11.1477 20.5341 11.1007 20.6903 11.0171C20.8465 10.9335 20.9343 10.8202 20.9343 10.7019C20.9343 10.5837 20.8465 10.4704 20.6903 10.3868C20.5341 10.3032 20.3223 10.2562 20.1014 10.2562H6.77573Z" fill="black"/>
<path d="M18.7572 14.941H6.50001C6.35225 14.941 6.21054 14.988 6.10605 15.0716C6.00157 15.1552 5.94287 15.2685 5.94287 15.3868C5.94287 15.505 6.00157 15.6183 6.10605 15.7019C6.21054 15.7855 6.35225 15.8325 6.50001 15.8325H18.7572C18.9049 15.8325 19.0466 15.7855 19.1511 15.7019C19.2556 15.6183 19.3143 15.505 19.3143 15.3868C19.3143 15.2685 19.2556 15.1552 19.1511 15.0716C19.0466 14.988 18.9049 14.941 18.7572 14.941Z" fill="black"/>
<path d="M14.5022 19.6258H6.44636C6.31283 19.6258 6.18476 19.6728 6.09034 19.7563C5.99592 19.8399 5.94287 19.9533 5.94287 20.0715C5.94287 20.1897 5.99592 20.3031 6.09034 20.3867C6.18476 20.4703 6.31283 20.5172 6.44636 20.5172H14.5022C14.6358 20.5172 14.7638 20.4703 14.8583 20.3867C14.9527 20.3031 15.0057 20.1897 15.0057 20.0715C15.0057 19.9533 14.9527 19.8399 14.8583 19.7563C14.7638 19.6728 14.6358 19.6258 14.5022 19.6258Z" fill="black"/>
</svg>
