<svg width="30" height="30" viewBox="0 0 30 30" fill="none" xmlns="http://www.w3.org/2000/svg">
<path d="M8.76973 23.0274C7.66306 23.0277 6.58117 22.6998 5.66086 22.0852C4.74054 21.4706 4.02316 20.5969 3.59943 19.5746C3.1757 18.5523 3.06465 17.4272 3.28033 16.3418C3.49602 15.2563 4.02874 14.2592 4.81113 13.4766L8.60215 9.68557C9.65279 8.63756 11.0762 8.04901 12.5602 8.04901C14.0441 8.04901 15.4675 8.63756 16.5182 9.68557C17.5664 10.7362 18.155 12.1598 18.155 13.6439C18.155 15.128 17.5664 16.5515 16.5182 17.6022L12.7277 21.3926C12.2082 21.9123 11.591 22.3243 10.9118 22.6048C10.2326 22.8853 9.50461 23.0289 8.76973 23.0274ZM12.5602 9.80334C12.0556 9.80229 11.5559 9.90105 11.0897 10.0939C10.6235 10.2868 10.2001 10.57 9.84375 10.9272L6.05273 14.7182C5.33269 15.4385 4.92826 16.4153 4.92843 17.4338C4.92859 18.4522 5.33333 19.4289 6.05361 20.1489C6.77389 20.869 7.75071 21.2734 8.76918 21.2733C9.78764 21.2731 10.7643 20.8683 11.4844 20.1481L15.2754 16.3571C15.8124 15.8202 16.1782 15.1361 16.3263 14.3914C16.4745 13.6466 16.3984 12.8746 16.1077 12.1731C15.8171 11.4716 15.3249 10.872 14.6934 10.4503C14.0619 10.0286 13.3195 9.80364 12.5602 9.80393V9.80334Z" fill="black"/>
<path d="M17.3379 21.1354C16.8608 21.1357 16.3856 21.0746 15.924 20.9537C15.7063 20.8879 15.5225 20.7403 15.4114 20.5419C15.3003 20.3434 15.2704 20.1096 15.328 19.8896C15.3857 19.6696 15.5264 19.4805 15.7206 19.362C15.9148 19.2436 16.1473 19.2051 16.3693 19.2545C17.0173 19.4235 17.6982 19.42 18.3444 19.2444C18.9907 19.0689 19.5797 18.7273 20.0531 18.2537L23.8441 14.4633C24.5643 13.7432 24.9688 12.7665 24.9688 11.7481C24.9688 10.7297 24.5643 9.75296 23.8441 9.03283C23.124 8.31271 22.1473 7.90814 21.1289 7.90814C20.1105 7.90814 19.1338 8.31271 18.4137 9.03283L14.6232 12.8238C14.151 13.2984 13.8104 13.8877 13.635 14.5338C13.4595 15.1799 13.4552 15.8605 13.6225 16.5088C13.669 16.7299 13.6287 16.9604 13.5097 17.1525C13.3908 17.3446 13.2025 17.4836 12.9839 17.5405C12.7652 17.5974 12.533 17.5679 12.3356 17.4582C12.1381 17.3485 11.9904 17.1669 11.9232 16.9512C11.6794 16.0064 11.6856 15.0145 11.9415 14.0729C12.1973 13.1313 12.6938 12.2725 13.3822 11.5811L17.1727 7.79006C17.6875 7.2495 18.3053 6.81739 18.9896 6.51915C19.674 6.22091 20.4111 6.06257 21.1575 6.05346C21.904 6.04434 22.6447 6.18463 23.3361 6.46606C24.0275 6.74749 24.6557 7.16438 25.1836 7.6922C25.7115 8.22003 26.1285 8.84811 26.41 9.53949C26.6915 10.2309 26.8319 10.9716 26.8229 11.718C26.8139 12.4645 26.6557 13.2016 26.3576 13.886C26.0594 14.5704 25.6274 15.1882 25.0869 15.7031L21.2965 19.4936C20.778 20.0154 20.1612 20.4292 19.4817 20.7111C18.8022 20.9929 18.0735 21.1371 17.3379 21.1354Z" fill="black"/>
</svg>