<svg width="21" height="21" viewBox="0 0 21 21" fill="none" xmlns="http://www.w3.org/2000/svg">
<path d="M6.5625 3.9375H18.375" stroke="black" stroke-miterlimit="10" stroke-linecap="round" stroke-linejoin="round"/>
<path d="M6.5625 10.5H18.375" stroke="black" stroke-miterlimit="10" stroke-linecap="round" stroke-linejoin="round"/>
<path d="M3.89218 2.81818V5H3.43089V3.25604H3.4181L2.91846 3.56925V3.16016L3.45858 2.81818H3.89218Z" fill="black"/>
<path d="M2.73202 11.5V11.1676L3.50866 10.4485C3.57471 10.3846 3.6301 10.3271 3.67485 10.2759C3.7203 10.2248 3.75475 10.1747 3.77819 10.1257C3.80162 10.076 3.81334 10.0224 3.81334 9.96484C3.81334 9.90092 3.79878 9.84588 3.76966 9.79972C3.74055 9.75284 3.70077 9.71697 3.65035 9.69212C3.59992 9.66655 3.54275 9.65376 3.47883 9.65376C3.41206 9.65376 3.35383 9.66726 3.30411 9.69425C3.25439 9.72124 3.21604 9.75994 3.18905 9.81037C3.16206 9.8608 3.14857 9.92081 3.14857 9.99041H2.71072C2.71072 9.84766 2.74303 9.72372 2.80766 9.61861C2.87229 9.51349 2.96285 9.43217 3.07932 9.37464C3.1958 9.31712 3.33003 9.28835 3.48202 9.28835C3.63827 9.28835 3.77428 9.31605 3.89005 9.37145C4.00653 9.42614 4.09708 9.50213 4.16171 9.59943C4.22634 9.69673 4.25866 9.80824 4.25866 9.93395C4.25866 10.0163 4.24232 10.0977 4.20965 10.1779C4.17769 10.2582 4.12052 10.3473 4.03813 10.4453C3.95574 10.5426 3.83962 10.6594 3.68976 10.7958L3.37123 11.108V11.1229H4.28742V11.5H2.73202Z" fill="black"/>
<path d="M3.49454 18.0298C3.33545 18.0298 3.19376 18.0025 3.06947 17.9478C2.94589 17.8924 2.84823 17.8164 2.7765 17.7198C2.70548 17.6225 2.6689 17.5103 2.66677 17.3832H3.13126C3.1341 17.4364 3.1515 17.4833 3.18346 17.5238C3.21613 17.5636 3.25945 17.5945 3.31343 17.6165C3.36741 17.6385 3.42813 17.6495 3.49561 17.6495C3.56592 17.6495 3.62806 17.6371 3.68204 17.6122C3.73602 17.5874 3.77828 17.5529 3.80882 17.5089C3.83936 17.4648 3.85463 17.4141 3.85463 17.3565C3.85463 17.2983 3.83829 17.2468 3.80562 17.2021C3.77366 17.1566 3.72749 17.1211 3.66713 17.0955C3.60747 17.07 3.53644 17.0572 3.45406 17.0572H3.25058V16.7184H3.45406C3.52366 16.7184 3.58509 16.7063 3.63836 16.6822C3.69234 16.658 3.73424 16.6246 3.76407 16.582C3.7939 16.5387 3.80882 16.4883 3.80882 16.4308C3.80882 16.3761 3.79568 16.3281 3.7694 16.2869C3.74383 16.245 3.70761 16.2124 3.66073 16.1889C3.61457 16.1655 3.56059 16.1538 3.4988 16.1538C3.4363 16.1538 3.37913 16.1651 3.32728 16.1879C3.27544 16.2099 3.23389 16.2415 3.20264 16.2827C3.17139 16.3239 3.1547 16.3722 3.15257 16.4276H2.71045C2.71258 16.3018 2.74845 16.1911 2.81805 16.0952C2.88765 15.9993 2.9814 15.9244 3.0993 15.8704C3.21791 15.8157 3.35178 15.7884 3.50093 15.7884C3.6515 15.7884 3.78325 15.8157 3.89617 15.8704C4.0091 15.9251 4.09681 15.9989 4.15931 16.092C4.22252 16.1843 4.25377 16.288 4.25306 16.4031C4.25377 16.5252 4.21578 16.6271 4.13907 16.7088C4.06308 16.7905 3.964 16.8423 3.84184 16.8643V16.8814C4.00235 16.902 4.12451 16.9577 4.20832 17.0487C4.29284 17.1388 4.33474 17.2518 4.33403 17.3874C4.33474 17.5117 4.29887 17.6222 4.22643 17.7188C4.1547 17.8153 4.05562 17.8913 3.9292 17.9467C3.80278 18.0021 3.65789 18.0298 3.49454 18.0298Z" fill="black"/>
<path d="M6.5625 17.0625H18.375" stroke="black" stroke-miterlimit="10" stroke-linecap="round" stroke-linejoin="round"/>
</svg>
