<svg width="21" height="21" viewBox="0 0 21 21" fill="none" xmlns="http://www.w3.org/2000/svg">
<path d="M13.7812 19.6875C13.6072 19.6875 13.4403 19.6184 13.3172 19.4953C13.1941 19.3722 13.125 19.2053 13.125 19.0312V2.625H11.8125V19.0312C11.8125 19.2053 11.7434 19.3722 11.6203 19.4953C11.4972 19.6184 11.3303 19.6875 11.1562 19.6875C10.9822 19.6875 10.8153 19.6184 10.6922 19.4953C10.5691 19.3722 10.5 19.2053 10.5 19.0312V11.8125H9.1875C7.79511 11.8125 6.45976 11.2594 5.47519 10.2748C4.49062 9.29025 3.9375 7.95489 3.9375 6.5625C3.9375 5.17011 4.49062 3.83476 5.47519 2.85019C6.45976 1.86562 7.79511 1.3125 9.1875 1.3125H16.4062C16.5803 1.3125 16.7472 1.38164 16.8703 1.50471C16.9934 1.62778 17.0625 1.7947 17.0625 1.96875C17.0625 2.1428 16.9934 2.30972 16.8703 2.43279C16.7472 2.55586 16.5803 2.625 16.4062 2.625H14.4375V19.0312C14.4375 19.2053 14.3684 19.3722 14.2453 19.4953C14.1222 19.6184 13.9553 19.6875 13.7812 19.6875Z" fill="currentColor"/>
</svg>
