<svg width="30" height="26" viewBox="0 0 30 26" fill="none" xmlns="http://www.w3.org/2000/svg">
<path d="M23.2243 6.46284H4.90146C4.68057 6.46284 4.46873 6.41588 4.31254 6.33229C4.15635 6.24871 4.0686 6.13534 4.0686 6.01713C4.0686 5.89891 4.15635 5.78555 4.31254 5.70196C4.46873 5.61837 4.68057 5.57141 4.90146 5.57141H23.2243C23.4452 5.57141 23.657 5.61837 23.8132 5.70196C23.9694 5.78555 24.0571 5.89891 24.0571 6.01713C24.0571 6.13534 23.9694 6.24871 23.8132 6.33229C23.657 6.41588 23.4452 6.46284 23.2243 6.46284Z" fill="black"/>
<path d="M23.2243 10.2562C23.4452 10.2562 23.657 10.3032 23.8132 10.3868C23.9694 10.4704 24.0571 10.5837 24.0571 10.7019C24.0571 10.8202 23.9694 10.9335 23.8132 11.0171C23.657 11.1007 23.4452 11.1477 23.2243 11.1477H9.89859C9.6777 11.1477 9.46586 11.1007 9.30967 11.0171C9.15348 10.9335 9.06573 10.8202 9.06573 10.7019C9.06573 10.5837 9.15348 10.4704 9.30967 10.3868C9.46586 10.3032 9.6777 10.2562 9.89859 10.2562H23.2243Z" fill="black"/>
<path d="M11.2428 14.941H23.5C23.6477 14.941 23.7895 14.988 23.8939 15.0716C23.9984 15.1552 24.0571 15.2685 24.0571 15.3868C24.0571 15.505 23.9984 15.6183 23.8939 15.7019C23.7895 15.7855 23.6477 15.8325 23.5 15.8325H11.2428C11.0951 15.8325 10.9534 15.7855 10.8489 15.7019C10.7444 15.6183 10.6857 15.505 10.6857 15.3868C10.6857 15.2685 10.7444 15.1552 10.8489 15.0716C10.9534 14.988 11.0951 14.941 11.2428 14.941Z" fill="black"/>
<path d="M15.4978 19.6258H23.5536C23.6872 19.6258 23.8152 19.6728 23.9097 19.7563C24.0041 19.8399 24.0571 19.9533 24.0571 20.0715C24.0571 20.1897 24.0041 20.3031 23.9097 20.3867C23.8152 20.4703 23.6872 20.5172 23.5536 20.5172H15.4978C15.3642 20.5172 15.2362 20.4703 15.1417 20.3867C15.0473 20.3031 14.9943 20.1897 14.9943 20.0715C14.9943 19.9533 15.0473 19.8399 15.1417 19.7563C15.2362 19.6728 15.3642 19.6258 15.4978 19.6258Z" fill="black"/>
</svg>
