<svg width="19" height="25" viewBox="0 0 19 25" fill="none" xmlns="http://www.w3.org/2000/svg">
<path d="M15.1 23.5H3.7C2.7 23.5 2 22.7 2 21.8V6.79999H16.8V21.7C16.8 22.7 16 23.5 15.1 23.5Z" stroke="black" stroke-width="1.5" stroke-miterlimit="10" stroke-linecap="round" stroke-linejoin="round"/>
<path d="M17.8 6.2V4.4C17.8 3.7 17.2 3.1 16.5 3.1H12.8L12.4 1.6C12.2 1.2 11.9 1 11.4 1H7.4C7 1 6.6 1.2 6.4 1.6L6 3H2.3C1.6 3 1 3.6 1 4.3V6.2C1 6.5 1.3 6.8 1.6 6.8H17.2C17.6 6.8 17.8 6.5 17.8 6.2Z" stroke="black" stroke-width="1.5" stroke-miterlimit="10" stroke-linecap="round" stroke-linejoin="round"/>
<path d="M6.2 10.4V19.9" stroke="black" stroke-width="1.5" stroke-miterlimit="10" stroke-linecap="round" stroke-linejoin="round"/>
<path d="M9.4 10.4V19.9" stroke="black" stroke-width="1.5" stroke-miterlimit="10" stroke-linecap="round" stroke-linejoin="round"/>
<path d="M12.6 10.4V19.9" stroke="black" stroke-width="1.5" stroke-miterlimit="10" stroke-linecap="round" stroke-linejoin="round"/>
</svg>
