<svg width="16" height="16" viewBox="0 0 16 16" fill="none" xmlns="http://www.w3.org/2000/svg">
<path d="M0 15.0479H16V16H0V15.0479Z" fill="black"/>
<path d="M10.9639 0H15.5541V0.429405C14.9462 0.466744 14.4902 0.594321 14.1862 0.812135C13.889 1.02373 13.7066 1.26332 13.639 1.53092C13.5714 1.79852 13.5377 2.31816 13.5377 3.08985V7.29988C13.5377 8.3765 13.4904 9.17619 13.3958 9.69894C13.308 10.2217 13.0445 10.7351 12.6054 11.2392C12.1731 11.7433 11.5617 12.1447 10.7714 12.4434C9.98099 12.7421 9.06902 12.8915 8.03546 12.8915C6.81274 12.8915 5.7758 12.7017 4.92463 12.322C4.08021 11.9362 3.47561 11.4415 3.11082 10.8378C2.75279 10.2279 2.57377 9.41267 2.57377 8.39206L2.5839 7.09451V3.15519C2.5839 2.14702 2.55013 1.49669 2.48257 1.2042C2.42178 0.911707 2.28667 0.709451 2.07725 0.597433C1.87459 0.485414 1.42537 0.429405 0.729566 0.429405H0.415443V0H6.68777V0.429405H6.41418C5.73864 0.429405 5.29617 0.482302 5.08675 0.588098C4.87734 0.68767 4.73548 0.877479 4.66117 1.15753C4.59362 1.43757 4.55984 2.10346 4.55984 3.15519V7.14119C4.55984 8.52275 4.62739 9.50291 4.7625 10.0817C4.90436 10.6604 5.29617 11.1676 5.93793 11.6033C6.57968 12.0327 7.43423 12.2474 8.50157 12.2474C9.33924 12.2474 10.0992 12.1042 10.7815 11.818C11.4705 11.5255 11.9806 11.1645 12.3116 10.7351C12.6493 10.2995 12.8554 9.85453 12.9297 9.40023C13.004 8.93971 13.0412 8.21781 13.0412 7.23454V2.92182C13.0412 2.20614 12.9972 1.70517 12.9094 1.4189C12.8216 1.13263 12.6325 0.905484 12.342 0.737456C12.0515 0.569428 11.5921 0.466744 10.9639 0.429405V0Z" fill="black"/>
</svg>
