<svg width="21" height="21" viewBox="0 0 21 21" fill="none" xmlns="http://www.w3.org/2000/svg">
<path d="M3.28125 4.59375C3.64369 4.59375 3.9375 4.29994 3.9375 3.9375C3.9375 3.57506 3.64369 3.28125 3.28125 3.28125C2.91881 3.28125 2.625 3.57506 2.625 3.9375C2.625 4.29994 2.91881 4.59375 3.28125 4.59375Z" fill="black" stroke="black" stroke-miterlimit="10" stroke-linecap="round" stroke-linejoin="round"/>
<path d="M3.28125 11.1562C3.64369 11.1562 3.9375 10.8624 3.9375 10.5C3.9375 10.1376 3.64369 9.84375 3.28125 9.84375C2.91881 9.84375 2.625 10.1376 2.625 10.5C2.625 10.8624 2.91881 11.1562 3.28125 11.1562Z" fill="black" stroke="black" stroke-miterlimit="10" stroke-linecap="round" stroke-linejoin="round"/>
<path d="M3.28125 17.7188C3.64369 17.7188 3.9375 17.4249 3.9375 17.0625C3.9375 16.7001 3.64369 16.4062 3.28125 16.4062C2.91881 16.4062 2.625 16.7001 2.625 17.0625C2.625 17.4249 2.91881 17.7188 3.28125 17.7188Z" fill="black" stroke="black" stroke-miterlimit="10" stroke-linecap="round" stroke-linejoin="round"/>
<path d="M6.5625 3.9375H18.375" stroke="black" stroke-miterlimit="10" stroke-linecap="round" stroke-linejoin="round"/>
<path d="M6.5625 10.5H18.375" stroke="black" stroke-miterlimit="10" stroke-linecap="round" stroke-linejoin="round"/>
<path d="M6.5625 17.0625H18.375" stroke="black" stroke-miterlimit="10" stroke-linecap="round" stroke-linejoin="round"/>
</svg>
